<mxfile host="app.diagrams.net" agent="Mozilla/5.0 (Macintosh; Intel Mac OS X 10_15_7) AppleWebKit/537.36 (KHTML, like Gecko) Chrome/127.0.0.0 Safari/537.36" version="24.7.6">
  <diagram id="l-Jjps4D73NWxP8bs-ZK" name="PÃ¡gina-1">
    <mxGraphModel dx="934" dy="707" grid="1" gridSize="10" guides="1" tooltips="1" connect="1" arrows="1" fold="1" page="1" pageScale="1" pageWidth="827" pageHeight="1169" math="0" shadow="0">
      <root>
        <mxCell id="0" />
        <mxCell id="1" parent="0" />
        <mxCell id="pxL3Kdr-6ICtDBTAwP_Y-1" style="edgeStyle=orthogonalEdgeStyle;rounded=0;orthogonalLoop=1;jettySize=auto;html=1;entryX=0.5;entryY=0;entryDx=0;entryDy=0;" parent="1" target="pxL3Kdr-6ICtDBTAwP_Y-4" edge="1">
          <mxGeometry relative="1" as="geometry">
            <mxPoint x="413.5" y="110" as="sourcePoint" />
          </mxGeometry>
        </mxCell>
        <mxCell id="pxL3Kdr-6ICtDBTAwP_Y-2" value="Proceso ConvertirACentimetros" style="rounded=1;whiteSpace=wrap;html=1;" parent="1" vertex="1">
          <mxGeometry x="312.48" y="70" width="200" height="40" as="geometry" />
        </mxCell>
        <mxCell id="HekGt568dhsqYjT20Z5A-1" style="edgeStyle=orthogonalEdgeStyle;rounded=0;orthogonalLoop=1;jettySize=auto;html=1;entryX=0.5;entryY=0;entryDx=0;entryDy=0;" edge="1" parent="1" source="pxL3Kdr-6ICtDBTAwP_Y-4" target="39uRkR-Mplllsht51jLu-1">
          <mxGeometry relative="1" as="geometry" />
        </mxCell>
        <mxCell id="pxL3Kdr-6ICtDBTAwP_Y-4" value="Defino numero1 como Entero" style="rounded=0;whiteSpace=wrap;html=1;" parent="1" vertex="1">
          <mxGeometry x="323.5" y="132" width="180" height="30" as="geometry" />
        </mxCell>
        <mxCell id="pxL3Kdr-6ICtDBTAwP_Y-5" value="Fin Proceso" style="rounded=1;whiteSpace=wrap;html=1;" parent="1" vertex="1">
          <mxGeometry x="352.48" y="460" width="120" height="40" as="geometry" />
        </mxCell>
        <mxCell id="pxL3Kdr-6ICtDBTAwP_Y-6" style="edgeStyle=orthogonalEdgeStyle;rounded=0;orthogonalLoop=1;jettySize=auto;html=1;entryX=0.5;entryY=0;entryDx=0;entryDy=0;" parent="1" source="pxL3Kdr-6ICtDBTAwP_Y-7" target="pxL3Kdr-6ICtDBTAwP_Y-9" edge="1">
          <mxGeometry relative="1" as="geometry" />
        </mxCell>
        <mxCell id="pxL3Kdr-6ICtDBTAwP_Y-7" value="Escribir &quot;Ingrese un numero en metros&quot;" style="shape=parallelogram;perimeter=parallelogramPerimeter;whiteSpace=wrap;html=1;fixedSize=1;" parent="1" vertex="1">
          <mxGeometry x="282.36" y="230" width="261.76" height="40" as="geometry" />
        </mxCell>
        <mxCell id="HekGt568dhsqYjT20Z5A-3" style="edgeStyle=orthogonalEdgeStyle;rounded=0;orthogonalLoop=1;jettySize=auto;html=1;entryX=0.5;entryY=0;entryDx=0;entryDy=0;" edge="1" parent="1" source="pxL3Kdr-6ICtDBTAwP_Y-9" target="9q_5t_53Sn-z0brsdcL0-3">
          <mxGeometry relative="1" as="geometry" />
        </mxCell>
        <mxCell id="pxL3Kdr-6ICtDBTAwP_Y-9" value="Leer numero1" style="rounded=0;whiteSpace=wrap;html=1;" parent="1" vertex="1">
          <mxGeometry x="324" y="290" width="180" height="30" as="geometry" />
        </mxCell>
        <mxCell id="9q_5t_53Sn-z0brsdcL0-8" style="edgeStyle=orthogonalEdgeStyle;rounded=0;orthogonalLoop=1;jettySize=auto;html=1;entryX=0.5;entryY=0;entryDx=0;entryDy=0;" parent="1" source="9q_5t_53Sn-z0brsdcL0-3" target="9q_5t_53Sn-z0brsdcL0-5" edge="1">
          <mxGeometry relative="1" as="geometry" />
        </mxCell>
        <mxCell id="9q_5t_53Sn-z0brsdcL0-3" value="resultado = numero1 * 100" style="rounded=0;whiteSpace=wrap;html=1;" parent="1" vertex="1">
          <mxGeometry x="289.55" y="340" width="247.38" height="30" as="geometry" />
        </mxCell>
        <mxCell id="9q_5t_53Sn-z0brsdcL0-9" style="edgeStyle=orthogonalEdgeStyle;rounded=0;orthogonalLoop=1;jettySize=auto;html=1;entryX=0.5;entryY=0;entryDx=0;entryDy=0;" parent="1" source="9q_5t_53Sn-z0brsdcL0-5" target="pxL3Kdr-6ICtDBTAwP_Y-5" edge="1">
          <mxGeometry relative="1" as="geometry" />
        </mxCell>
        <mxCell id="9q_5t_53Sn-z0brsdcL0-5" value="Escribir &quot;El resultado es: &quot; + resultado + &quot; centimetros&quot;" style="shape=parallelogram;perimeter=parallelogramPerimeter;whiteSpace=wrap;html=1;fixedSize=1;" parent="1" vertex="1">
          <mxGeometry x="236.8" y="395" width="352.88" height="40" as="geometry" />
        </mxCell>
        <mxCell id="39uRkR-Mplllsht51jLu-5" style="edgeStyle=orthogonalEdgeStyle;rounded=0;orthogonalLoop=1;jettySize=auto;html=1;entryX=0.5;entryY=0;entryDx=0;entryDy=0;" parent="1" source="39uRkR-Mplllsht51jLu-1" target="pxL3Kdr-6ICtDBTAwP_Y-7" edge="1">
          <mxGeometry relative="1" as="geometry" />
        </mxCell>
        <mxCell id="39uRkR-Mplllsht51jLu-1" value="Defino resultado como Entero" style="rounded=0;whiteSpace=wrap;html=1;" parent="1" vertex="1">
          <mxGeometry x="323.24" y="180" width="180" height="30" as="geometry" />
        </mxCell>
      </root>
    </mxGraphModel>
  </diagram>
</mxfile>
